<svg width="62" height="62" viewBox="0 0 62 62" fill="none" xmlns="http://www.w3.org/2000/svg">
<circle cx="31" cy="31" r="31" fill="white" fill-opacity="0.07"/>
<path d="M20.5299 25.3477C20.1029 23.0367 19.6853 20.7654 19.2614 18.4942C18.8103 16.0712 20.4724 13.5937 22.8713 13.1217C25.4398 12.6162 27.9036 14.183 28.4155 16.6657C28.4992 17.0707 28.5212 17.4946 28.5233 17.9102C28.5348 19.723 28.5285 21.5347 28.5285 23.3884C29.8096 23.3884 31.0551 23.3884 32.3802 23.3884C32.3802 23.2219 32.3802 23.0388 32.3802 22.8556C32.3802 21.1632 32.3771 19.4707 32.3812 17.7772C32.3865 15.2893 34.1783 13.286 36.6275 13.0254C38.972 12.7753 41.2119 14.3965 41.6243 16.8112C41.7771 17.7071 41.6086 18.6805 41.462 19.5995C41.1794 21.3662 40.8183 23.1204 40.4667 24.8746C40.3913 25.2535 40.5567 25.399 40.8571 25.5372C42.695 26.3849 44.356 27.4881 45.7115 29.0079C47.1642 30.6365 48.0549 32.4995 47.9974 34.7289C47.9628 36.0854 48.0476 37.469 47.8058 38.791C47.3589 41.2255 45.8067 43.0017 43.883 44.4555C41.2841 46.419 38.3032 47.473 35.1235 48.012C30.2806 48.8337 25.5445 48.46 20.9685 46.6221C18.5601 45.655 16.4176 44.2776 14.8037 42.1905C13.6408 40.6875 12.9542 39.0076 13.0024 37.0745C13.0327 35.8561 12.971 34.6263 13.1144 33.4206C13.3572 31.3785 14.4666 29.7604 15.9131 28.3589C17.2434 27.0726 18.804 26.1306 20.5299 25.3477Z" fill="#F0B90B"/>
</svg>
