<svg width="62" height="62" viewBox="0 0 62 62" fill="none" xmlns="http://www.w3.org/2000/svg">
<circle cx="31" cy="31" r="31" fill="white" fill-opacity="0.07"/>
<g clip-path="url(#clip0)">
<path d="M47.0755 28.8244C45.6426 23.9012 44.0267 21.3574 44.0006 21.3118C43.9085 21.1994 41.625 18.4668 36.1214 16.4456L35.3942 18.4256C38.0124 19.3872 39.8699 20.5602 40.8915 21.3182C37.8416 20.4075 34.2134 19.8497 31 19.8497C27.7866 19.8497 24.1584 20.4075 21.1085 21.3182C22.13 20.5603 23.9875 19.3872 26.6058 18.4256L25.8785 16.4456C20.3751 18.4668 18.0916 21.1994 17.9995 21.3118C17.9734 21.3574 16.3574 23.9012 14.9246 28.8244C13.5437 33.5688 13.0191 40.2617 13 40.5301C13.123 40.7225 15.9531 45.5544 23.6659 45.5544L25.6209 42.7234C23.4306 42.1419 21.3422 41.2041 19.4304 39.9315L20.5992 38.1756C23.6834 40.2285 27.28 41.3137 31 41.3137C34.72 41.3137 38.3166 40.2285 41.4008 38.1756L42.5696 39.9315C40.6579 41.2041 38.5694 42.1419 36.3791 42.7234L38.3341 45.5544C46.0469 45.5544 48.877 40.7225 49 40.5301C48.9809 40.2617 48.4563 33.5688 47.0755 28.8244ZM26.1233 34.3426H24.0139V30.827H26.1233V34.3426ZM37.9861 34.3426H35.8767V30.827H37.9861V34.3426Z" fill="#F0B90B"/>
</g>
<defs>
<clipPath id="clip0">
<rect width="36" height="36" fill="white" transform="translate(13 13)"/>
</clipPath>
</defs>
</svg>
