<svg width="62" height="62" viewBox="0 0 62 62" fill="none" xmlns="http://www.w3.org/2000/svg">
<circle cx="31" cy="31" r="31" fill="white" fill-opacity="0.07"/>
<path d="M30.9977 13.3748C21.0595 13.3748 13 21.4658 13 31.4468C13 39.4298 18.157 46.2023 25.312 48.594C26.212 48.7605 26.5405 48.2025 26.5405 47.7233C26.5405 47.2935 26.5247 46.1573 26.5157 44.6498C21.5095 45.741 20.452 42.2265 20.452 42.2265C19.6353 40.1385 18.454 39.5828 18.454 39.5828C16.8183 38.4623 18.5755 38.4848 18.5755 38.4848C20.3822 38.613 21.3317 40.3478 21.3317 40.3478C22.9383 43.1085 25.546 42.312 26.572 41.8485C26.734 40.6808 27.1997 39.8843 27.715 39.432C23.719 38.9753 19.516 37.425 19.516 30.5018C19.516 28.5285 20.218 26.9153 21.37 25.6508C21.1833 25.194 20.5668 23.3558 21.5455 20.8695C21.5455 20.8695 23.0575 20.3835 26.4955 22.7213C27.931 22.3208 29.47 22.1205 31.0023 22.1138C32.53 22.1228 34.0712 22.3208 35.509 22.7235C38.9447 20.3858 40.4545 20.8718 40.4545 20.8718C41.4355 23.3603 40.819 25.1963 40.6345 25.653C41.7887 26.9175 42.484 28.5308 42.484 30.504C42.484 37.4453 38.2765 38.973 34.267 39.4208C34.9127 39.9788 35.4888 41.0813 35.4888 42.7665C35.4888 45.183 35.4662 47.1315 35.4662 47.7233C35.4662 48.207 35.7902 48.7695 36.7038 48.5918C43.8475 46.1978 49 39.4275 49 31.4468C49 21.4658 40.9405 13.3748 30.9977 13.3748Z" fill="#F0B90B"/>
</svg>
