<svg width="62" height="62" viewBox="0 0 62 62" fill="none" xmlns="http://www.w3.org/2000/svg">
<circle cx="31" cy="31" r="31" fill="white" fill-opacity="0.07"/>
<g clip-path="url(#clip0)">
<path d="M49 19.8377C47.6613 20.425 46.2347 20.8142 44.7475 21.0032C46.2775 20.0897 47.4453 18.6542 47.9943 16.924C46.5678 17.7745 44.9927 18.3753 43.3142 18.7105C41.9597 17.2683 40.0292 16.375 37.9232 16.375C33.8372 16.375 30.5477 19.6915 30.5477 23.7573C30.5477 24.3423 30.5972 24.9047 30.7188 25.4402C24.583 25.141 19.1537 22.2003 15.5065 17.7205C14.8697 18.8253 14.4963 20.0898 14.4963 21.451C14.4963 24.007 15.8125 26.2727 17.7745 27.5845C16.5887 27.562 15.4255 27.2178 14.44 26.6755C14.44 26.698 14.44 26.7273 14.44 26.7565C14.44 30.343 16.9982 33.322 20.353 34.0082C19.7522 34.1725 19.0975 34.2512 18.418 34.2512C17.9455 34.2512 17.4685 34.2243 17.0208 34.1252C17.977 37.048 20.6905 39.1967 23.917 39.2665C21.406 41.2307 18.2178 42.4142 14.7663 42.4142C14.161 42.4142 13.5805 42.3872 13 42.313C16.2692 44.4212 20.1438 45.625 24.322 45.625C37.903 45.625 45.328 34.375 45.328 24.6235C45.328 24.2972 45.3167 23.9823 45.301 23.6695C46.7658 22.63 47.9965 21.3317 49 19.8377Z" fill="#F0B90B"/>
</g>
<defs>
<clipPath id="clip0">
<rect width="36" height="36" fill="white" transform="translate(13 13)"/>
</clipPath>
</defs>
</svg>
